<svg id="quote_1" data-name="quote 1" xmlns="http://www.w3.org/2000/svg" width="71" height="59" viewBox="0 0 71 59">
  <defs>
    <style>
      .cls-1 {
        fill: #d7af86;
        fill-rule: evenodd;
      }
    </style>
  </defs>
  <path id="quote" class="cls-1" d="M33.248,8.994H10.006V29.683a18.363,18.363,0,0,0,1.789,8.574,17.489,17.489,0,0,0,4.644,5.669,24.664,24.664,0,0,0,6.356,3.627q3.5,1.371,6.925,2.444l3.425-6.447a34.728,34.728,0,0,1-4.435-2.069A12.8,12.8,0,0,1,25.7,39.2a7.767,7.767,0,0,1-1.713-2.82,11.5,11.5,0,0,1-.544-3.735h9.806V8.994Zm28.742,0H38.8V29.683a18.364,18.364,0,0,0,1.789,8.574,17.627,17.627,0,0,0,4.618,5.669,24.258,24.258,0,0,0,6.329,3.627q3.5,1.371,6.925,2.444l3.477-6.447A34.741,34.741,0,0,1,57.5,41.481a12.824,12.824,0,0,1-3.01-2.284,7.772,7.772,0,0,1-1.712-2.82,11.5,11.5,0,0,1-.544-3.735H61.99V8.994Z"/>
</svg>
